HIERARCHY
ROOT hip
{
  OFFSET 281.684 84.0095 -6.26527
  CHANNELS 6 Xposition Yposition Zposition Zrotation Xrotation Yrotation
  JOINT abdomen
  {
    OFFSET 0 20.6881 -0.73152
    CHANNELS 3 Zrotation Xrotation Yrotation
    JOINT chest
    {
      OFFSET 0 11.7043 -0.48768
      CHANNELS 3 Zrotation Xrotation Yrotation
      JOINT neck
      {
        OFFSET 0 22.1894 -2.19456
        CHANNELS 3 Zrotation Xrotation Yrotation
        JOINT head
        {
          OFFSET -0.24384 7.07133 1.2192
          CHANNELS 3 Zrotation Xrotation Yrotation
          JOINT leftEye
          {
            OFFSET 4.14528 8.04674 8.04672
            CHANNELS 3 Zrotation Xrotation Yrotation
            End Site
            {
              OFFSET 1 0 0
            }
          }
          JOINT rightEye
          {
            OFFSET -3.6576 8.04674 8.04672
            CHANNELS 3 Zrotation Xrotation Yrotation
            End Site
            {
              OFFSET 1 0 0
            }
          }
        }
      }
      JOINT rCollar
      {
        OFFSET -2.68224 19.2634 -4.8768
        CHANNELS 3 Zrotation Xrotation Yrotation
        JOINT rShldr
        {
          OFFSET -8.77824 -1.95073 1.46304
          CHANNELS 3 Zrotation Xrotation Yrotation
          JOINT rForeArm
          {
            OFFSET -28.1742 -1.7115 0.48768
            CHANNELS 3 Zrotation Xrotation Yrotation
            JOINT rHand
            {
              OFFSET -22.5879 0.773209 7.07136
              CHANNELS 3 Zrotation Xrotation Yrotation
              JOINT rThumb1
              {
                OFFSET -1.2192 -0.487915 3.41376
                CHANNELS 3 Zrotation Xrotation Yrotation
                JOINT rThumb2
                {
                  OFFSET -3.37035 -0.52449 3.41376
                  CHANNELS 3 Zrotation Xrotation Yrotation
                  End Site
                  {
                    OFFSET -1.78271 -1.18214 1.43049
                  }
                }
              }
              JOINT rIndex1
              {
                OFFSET -7.75947 0.938293 5.60832
                CHANNELS 3 Zrotation Xrotation Yrotation
                JOINT rIndex2
                {
                  OFFSET -2.54057 -0.884171 1.56538
                  CHANNELS 3 Zrotation Xrotation Yrotation
                  End Site
                  {
                    OFFSET -1.62519 -0.234802 1.16502
                  }
                }
              }
              JOINT rMid1
              {
                OFFSET -8.24714 1.18213 3.41376
                CHANNELS 3 Zrotation Xrotation Yrotation
                JOINT rMid2
                {
                  OFFSET -3.10165 -0.590103 1.0647
                  CHANNELS 3 Zrotation Xrotation Yrotation
                  End Site
                  {
                    OFFSET -2.48547 -0.328903 0.83742
                  }
                }
              }
              JOINT rRing1
              {
                OFFSET -8.82822 0.546677 1.51678
                CHANNELS 3 Zrotation Xrotation Yrotation
                JOINT rRing2
                {
                  OFFSET -2.60934 -0.819778 -0.0198488
                  CHANNELS 3 Zrotation Xrotation Yrotation
                  End Site
                  {
                    OFFSET -2.33842 -0.294052 0.168128
                  }
                }
              }
              JOINT rPinky1
              {
                OFFSET -8.27202 -0.0477905 -0.4584
                CHANNELS 3 Zrotation Xrotation Yrotation
                JOINT rPinky2
                {
                  OFFSET -1.82734 -0.647385 -0.700984
                  CHANNELS 3 Zrotation Xrotation Yrotation
                  End Site
                  {
                    OFFSET -1.69225 -0.51767 -0.607171
                  }
                }
              }
            }
          }
        }
      }
      JOINT lCollar
      {
        OFFSET 2.68224 19.2634 -4.8768
        CHANNELS 3 Zrotation Xrotation Yrotation
        JOINT lShldr
        {
          OFFSET 8.77824 -1.95073 1.46304
          CHANNELS 3 Zrotation Xrotation Yrotation
          JOINT lForeArm
          {
            OFFSET 28.1742 -1.7115 0.48768
            CHANNELS 3 Zrotation Xrotation Yrotation
            JOINT lHand
            {
              OFFSET 22.5879 0.773209 7.07136
              CHANNELS 3 Zrotation Xrotation Yrotation
              JOINT lThumb1
              {
                OFFSET 1.2192 -0.487915 3.41376
                CHANNELS 3 Zrotation Xrotation Yrotation
                JOINT lThumb2
                {
                  OFFSET 3.37035 -0.52449 3.41376
                  CHANNELS 3 Zrotation Xrotation Yrotation
                  End Site
                  {
                    OFFSET 1.78271 -1.18214 1.43049
                  }
                }
              }
              JOINT lIndex1
              {
                OFFSET 7.75947 0.938293 5.60832
                CHANNELS 3 Zrotation Xrotation Yrotation
                JOINT lIndex2
                {
                  OFFSET 2.54057 -0.884171 1.56538
                  CHANNELS 3 Zrotation Xrotation Yrotation
                  End Site
                  {
                    OFFSET 1.62519 -0.234802 1.16502
                  }
                }
              }
              JOINT lMid1
              {
                OFFSET 8.24714 1.18213 3.41376
                CHANNELS 3 Zrotation Xrotation Yrotation
                JOINT lMid2
                {
                  OFFSET 3.10165 -0.590103 1.0647
                  CHANNELS 3 Zrotation Xrotation Yrotation
                  End Site
                  {
                    OFFSET 2.48547 -0.328903 0.83742
                  }
                }
              }
              JOINT lRing1
              {
                OFFSET 8.82822 0.546677 1.51678
                CHANNELS 3 Zrotation Xrotation Yrotation
                JOINT lRing2
                {
                  OFFSET 2.60934 -0.819778 -0.0198488
                  CHANNELS 3 Zrotation Xrotation Yrotation
                  End Site
                  {
                    OFFSET 2.33842 -0.294052 0.168128
                  }
                }
              }
              JOINT lPinky1
              {
                OFFSET 8.27202 -0.0477905 -0.4584
                CHANNELS 3 Zrotation Xrotation Yrotation
                JOINT lPinky2
                {
                  OFFSET 1.82734 -0.647385 -0.700984
                  CHANNELS 3 Zrotation Xrotation Yrotation
                  End Site
                  {
                    OFFSET 1.69225 -0.51767 -0.607171
                  }
                }
              }
            }
          }
        }
      }
    }
  }
  JOINT rButtock
  {
    OFFSET -8.77824 4.35084 1.2192
    CHANNELS 3 Zrotation Xrotation Yrotation
    JOINT rThigh
    {
      OFFSET 0 -1.70687 -2.19456
      CHANNELS 3 Zrotation Xrotation Yrotation
      JOINT rShin
      {
        OFFSET 0 -36.8199 0.73152
        CHANNELS 3 Zrotation Xrotation Yrotation
        JOINT rFoot
        {
          OFFSET 0.73152 -45.1104 -5.12064
          CHANNELS 3 Zrotation Xrotation Yrotation
          End Site
          {
            OFFSET -1.1221 -3.69964 12.103
          }
        }
      }
    }
  }
  JOINT lButtock
  {
    OFFSET 8.77824 4.35084 1.2192
    CHANNELS 3 Zrotation Xrotation Yrotation
    JOINT lThigh
    {
      OFFSET 0 -1.70687 -2.19456
      CHANNELS 3 Zrotation Xrotation Yrotation
      JOINT lShin
      {
        OFFSET 0 -36.8199 0.73152
        CHANNELS 3 Zrotation Xrotation Yrotation
        JOINT lFoot
        {
          OFFSET -0.73152 -45.1104 -5.12064
          CHANNELS 3 Zrotation Xrotation Yrotation
          End Site
          {
            OFFSET 1.1221 -3.69964 12.103
          }
        }
      }
    }
  }
}
MOTION
Frames:	8
Frame Time:	0.00833333
36.9078 84.2135 4.54613 -16.2905 -4.76449 93.381 -0.571652 -19.4806 -0.29921 3.4156 4.28763 0.064974 -5.49171 17.1241 -2.36625 13.75 -11.8611 -2.37008 -0 0 0 -0 0 0 1.90437e-014 -1.60121e-012 -1.52518e-013 83.0917 15.7834 1.01339 -12.2065 -5.59451 22.0104 -0.0743693 7.75689 1.09694 -2.59965e-009 3.68371e-011 9.43858e-009 -4.42244e-009 6.88272e-011 1.63269e-008 -2.59965e-009 3.68396e-011 9.43857e-009 7.73091 5.47488 0.417314 -2.59965e-009 3.68347e-011 9.43857e-009 2.90554 0.965183 0.102902 -2.59965e-009 3.68372e-011 9.43858e-009 10.2786 0.731801 0.0259123 -2.59966e-009 3.68376e-011 9.43858e-009 2.22167 -0.733487 -0.20892 1.89254e-014 -1.60121e-012 -1.52766e-013 27.0287 -79.4082 120.494 5.97059 -2.03059 -10.4331 158.661 52.899 -169.291 7.30484e-009 -1.86826e-010 4.65501e-009 1.24937e-008 -5.42984e-010 6.96473e-009 7.30483e-009 -1.86825e-010 4.65501e-009 -7.73091 5.47488 -0.417314 7.30484e-009 -1.86825e-010 4.65501e-009 -2.90554 0.965183 -0.102902 7.30483e-009 -1.86825e-010 4.65501e-009 -10.2786 0.731801 -0.0259123 7.30484e-009 -1.86826e-010 4.655e-009 -2.22167 -0.733487 0.20892 -2.03217e-016 0 -3.88251e-019 11.7794 -33.4286 4.64426 -0.168558 30.5316 0.231739 -2.48569 -5.62912 -10.4928 2.03217e-016 0 3.88251e-019 5.45141 -40.3343 2.67134 1.98117 69.2473 -2.31053 1.1989 0.206362 4.22603 
37.8807 84.2568 4.52466 -16.2907 -4.73873 93.4743 -0.617545 -19.4337 -0.0339272 3.33247 4.24942 0.13729 -5.50084 17.2213 -2.44622 13.8208 -11.9926 -2.50752 -0 0 0 -0 0 0 1.6057e-014 -2.01738e-012 -2.3438e-013 82.6433 16.496 1.95317 -12.4612 -5.7772 22.5062 -0.0635506 7.09248 1.0022 -1.94204e-009 5.66198e-010 8.80172e-009 -3.29222e-009 9.86141e-010 1.52206e-008 -1.94203e-009 5.66201e-010 8.80171e-009 7.73091 5.47488 0.417314 -1.94203e-009 5.66196e-010 8.80172e-009 2.90554 0.965183 0.102902 -1.94203e-009 5.66198e-010 8.80172e-009 10.2786 0.731801 0.0259123 -1.94204e-009 5.66199e-010 8.80173e-009 2.22167 -0.733487 -0.20892 1.59441e-014 -2.01738e-012 -2.34647e-013 18.726 -79.3272 111.876 5.92664 -2.0112 -10.3543 158.049 54.7801 -168.526 7.23393e-009 -2.62696e-010 4.24572e-009 1.23595e-008 -6.99092e-010 6.2979e-009 7.23392e-009 -2.62694e-010 4.24572e-009 -7.73091 5.47488 -0.417314 7.23393e-009 -2.62694e-010 4.24571e-009 -2.90554 0.965183 -0.102902 7.23392e-009 -2.62694e-010 4.24572e-009 -10.2786 0.731801 -0.0259123 7.23393e-009 -2.62695e-010 4.24571e-009 -2.22167 -0.733487 0.20892 -2.03217e-016 0 -3.88251e-019 11.7602 -32.7502 4.78683 -0.164372 30.56 0.266022 -2.53902 -5.68485 -10.6929 2.03217e-016 0 3.88251e-019 5.02961 -41.6583 2.14834 1.93178 68.923 -2.27851 1.40734 -0.935109 4.91296 
38.8505 84.2793 4.50201 -16.2168 -4.71496 93.5995 -0.657513 -19.2843 0.209468 3.2514 4.18776 0.201906 -5.50589 17.2688 -2.52041 13.8754 -12.0734 -2.63708 -0 0 0 -0 0 0 1.96315e-014 -1.9347e-012 -3.08135e-013 82.1546 17.0778 2.88675 -12.7071 -5.95733 22.9864 -0.0552738 6.59859 0.931772 -1.05341e-009 1.12399e-009 7.10051e-009 -1.77083e-009 1.95123e-009 1.22748e-008 -1.05341e-009 1.12399e-009 7.1005e-009 7.73091 5.47488 0.417314 -1.05341e-009 1.12399e-009 7.10051e-009 2.90554 0.965183 0.102902 -1.05341e-009 1.12399e-009 7.10051e-009 10.2786 0.731801 0.0259123 -1.05342e-009 1.12399e-009 7.10052e-009 2.22167 -0.733487 -0.20892 1.95335e-014 -1.9347e-012 -3.08436e-013 7.21321 -79.1311 100.057 5.85832 -1.98106 -10.2322 157.029 57.3994 -167.299 6.57935e-009 -3.69128e-010 3.18989e-009 1.12104e-008 -8.93605e-010 4.62549e-009 6.57935e-009 -3.69124e-010 3.18989e-009 -7.73091 5.47488 -0.417314 6.57935e-009 -3.69124e-010 3.18989e-009 -2.90554 0.965183 -0.102902 6.57935e-009 -3.69124e-010 3.18989e-009 -10.2786 0.731801 -0.0259123 6.57935e-009 -3.69125e-010 3.18988e-009 -2.22167 -0.733487 0.20892 -2.03217e-016 0 -3.88251e-019 11.7389 -31.9971 4.91289 -0.160609 30.5917 0.301681 -2.56249 -5.66131 -10.802 2.03217e-016 0 3.88251e-019 4.56539 -42.8226 1.54463 1.85467 68.3881 -2.22203 1.63486 -2.08034 5.56137 
39.8459 84.3062 4.48004 -16.1189 -4.68672 93.6833 -0.682708 -19.0969 0.477333 3.16545 4.12804 0.271948 -5.51319 17.3012 -2.58962 13.9161 -12.1635 -2.75838 -0 0 0 -0 0 0 2.64032e-014 -1.55749e-012 -3.55157e-013 81.6378 17.5728 3.83389 -12.9388 -6.12972 23.4413 -0.0475091 6.15909 0.869085 -2.15536e-010 1.54269e-009 4.89483e-009 -3.40088e-010 2.67484e-009 8.45807e-009 -2.15532e-010 1.54269e-009 4.89481e-009 7.73091 5.47488 0.417314 -2.15536e-010 1.54269e-009 4.89482e-009 2.90554 0.965183 0.102902 -2.15531e-010 1.54269e-009 4.89483e-009 10.2786 0.731801 0.0259123 -2.15539e-010 1.54269e-009 4.89484e-009 2.22167 -0.733487 -0.20892 2.63226e-014 -1.55748e-012 -3.5549e-013 -6.0181 -78.483 86.5442 5.78444 -1.94854 -10.1003 155.549 60.526 -165.578 5.40626e-009 -4.39846e-010 1.93088e-009 9.17527e-009 -1.00438e-009 2.66364e-009 5.40625e-009 -4.39841e-010 1.93088e-009 -7.73091 5.47488 -0.417314 5.40625e-009 -4.3984e-010 1.93087e-009 -2.90554 0.965183 -0.102902 5.40625e-009 -4.39841e-010 1.93088e-009 -10.2786 0.731801 -0.0259123 5.40626e-009 -4.3984e-010 1.93087e-009 -2.22167 -0.733487 0.20892 -2.03217e-016 0 -3.88251e-019 11.725 -31.2099 5.05266 -0.157123 30.6068 0.336987 -2.57258 -5.61901 -10.8534 2.03217e-016 0 3.88251e-019 4.10773 -43.8579 0.954505 1.75537 67.6414 -2.14357 1.8657 -3.15938 6.15307 
40.8566 84.3673 4.4571 -16.0469 -4.65153 93.6514 -0.683639 -18.9355 0.81624 3.0676 4.09566 0.36055 -5.52889 17.3531 -2.65471 13.9448 -12.3228 -2.87118 -0 0 0 -0 0 0 3.30082e-014 -1.09006e-012 -3.56818e-013 81.1015 18.0242 4.81538 -13.1511 -6.28935 23.8611 -0.0394218 5.65781 0.797774 2.89836e-010 1.65476e-009 2.74454e-009 5.18179e-010 2.86773e-009 4.73897e-009 2.8984e-010 1.65476e-009 2.74453e-009 7.73091 5.47488 0.417314 2.89836e-010 1.65476e-009 2.74454e-009 2.90554 0.965183 0.102902 2.89841e-010 1.65476e-009 2.74455e-009 10.2786 0.731801 0.0259123 2.89833e-010 1.65476e-009 2.74455e-009 2.22167 -0.733487 -0.20892 3.29408e-014 -1.09006e-012 -3.57166e-013 -18.8211 -77.2088 73.4936 5.72398 -1.92205 -9.99256 153.538 63.9294 -163.306 3.77978e-009 -4.08574e-010 9.1203e-010 6.3834e-009 -9.09289e-010 1.12852e-009 3.77977e-009 -4.08568e-010 9.1203e-010 -7.73091 5.47488 -0.417314 3.77978e-009 -4.08568e-010 9.12027e-010 -2.90554 0.965183 -0.102902 3.77978e-009 -4.08568e-010 9.12032e-010 -10.2786 0.731801 -0.0259123 3.77978e-009 -4.08567e-010 9.12024e-010 -2.22167 -0.733487 0.20892 -2.03217e-016 0 -3.88251e-019 11.7265 -30.4292 5.23542 -0.153706 30.5854 0.370181 -2.58625 -5.61832 -10.8804 2.03217e-016 0 3.88251e-019 3.71386 -44.7966 0.478334 1.6404 66.682 -2.04656 2.08009 -4.10285 6.66895 
41.8527 84.4203 4.43892 -16.0138 -4.6051 93.4648 -0.640196 -18.8166 1.26606 2.94927 4.10634 0.477834 -5.55378 17.4355 -2.71802 13.9565 -12.5844 -2.97938 -0 0 0 -0 0 0 4.2316e-014 -3.64421e-013 -2.83689e-013 80.5429 18.4367 5.84698 -13.3464 -6.43847 24.2486 -0.0303772 5.01648 0.706809 2.97854e-010 1.25647e-009 2.63038e-010 5.18001e-010 2.17711e-009 4.50211e-010 2.97858e-010 1.25647e-009 2.63027e-010 7.73091 5.47488 0.417314 2.97854e-010 1.25647e-009 2.6304e-010 2.90554 0.965183 0.102902 2.97859e-010 1.25646e-009 2.63042e-010 10.2786 0.731801 0.0259123 2.97851e-010 1.25647e-009 2.63052e-010 2.22167 -0.733487 -0.20892 4.22612e-014 -3.64419e-013 -2.84024e-013 -30.9835 -75.1354 61.1155 5.67565 -1.90111 -9.90644 150.455 67.8177 -159.92 9.68554e-010 -1.765e-010 1.6733e-010 1.59743e-009 -4.05954e-010 1.30455e-010 9.68548e-010 -1.76494e-010 1.67331e-010 -7.73091 5.47488 -0.417314 9.68552e-010 -1.76493e-010 1.67328e-010 -2.90554 0.965183 -0.102902 9.68548e-010 -1.76494e-010 1.67331e-010 -10.2786 0.731801 -0.0259123 9.68557e-010 -1.76493e-010 1.67325e-010 -2.22167 -0.733487 0.20892 -2.03217e-016 0 -3.88251e-019 11.7582 -29.6874 5.47926 -0.150566 30.5583 0.402064 -2.60933 -5.69227 -10.875 2.03217e-016 0 3.88251e-019 3.43992 -45.6433 0.195027 1.51475 65.5046 -1.93596 2.26616 -4.90343 7.09634 
42.8251 84.4382 4.424 -15.993 -4.53944 93.1759 -0.563865 -18.7054 1.79262 2.8162 4.14355 0.614606 -5.58482 17.5295 -2.77841 13.9516 -12.9105 -3.08197 -0 0 0 -0 0 0 5.48651e-014 6.54245e-013 -1.53856e-013 79.9633 18.7881 6.91301 -13.527 -6.579 24.607 -0.0218148 4.31279 0.607213 -1.13069e-011 4.90176e-010 -2.66965e-009 -3.11541e-011 8.49134e-010 -4.61624e-009 -1.13041e-011 4.90176e-010 -2.66966e-009 7.73091 5.47488 0.417314 -1.13056e-011 4.90176e-010 -2.66964e-009 2.90554 0.965183 0.102902 -1.13028e-011 4.90174e-010 -2.66964e-009 10.2786 0.731801 0.0259123 -1.13103e-011 4.90176e-010 -2.66963e-009 2.22167 -0.733487 -0.20892 5.48241e-014 6.54246e-013 -1.54164e-013 -41.3266 -72.1756 50.6033 5.63149 -1.88215 -9.82777 145.203 72.1216 -154.327 -2.81258e-009 1.93982e-010 -5.11598e-010 -4.82758e-009 3.83881e-010 -6.85622e-010 -2.81259e-009 1.93989e-010 -5.11594e-010 -7.73091 5.47488 -0.417314 -2.81259e-009 1.9399e-010 -5.11596e-010 -2.90554 0.965183 -0.102902 -2.81259e-009 1.93989e-010 -5.11597e-010 -10.2786 0.731801 -0.0259123 -2.81258e-009 1.93989e-010 -5.11601e-010 -2.22167 -0.733487 0.20892 -2.03217e-016 0 -3.88251e-019 11.8086 -28.9557 5.76376 -0.147681 30.5242 0.433128 -2.63222 -5.80306 -10.8253 2.03217e-016 0 3.88251e-019 3.2607 -46.3838 0.0463363 1.38218 64.1115 -1.8168 2.42557 -5.5955 7.44687 
43.7997 84.4621 4.4024 -15.9742 -4.44868 92.8479 -0.491781 -18.5894 2.33168 2.68292 4.18425 0.755018 -5.62233 17.6244 -2.83151 13.9398 -13.2553 -3.1713 -0 0 0 -0 0 0 6.37952e-014 1.56181e-012 -1.99751e-014 79.3743 19.0821 7.98785 -13.6879 -6.70566 24.9274 -0.0156892 3.66459 0.51568 -4.01865e-010 -2.92471e-010 -5.09364e-009 -7.17956e-010 -5.07058e-010 -8.80297e-009 -4.01863e-010 -2.92472e-010 -5.09365e-009 7.73091 5.47488 0.417314 -4.01862e-010 -2.92472e-010 -5.09363e-009 2.90554 0.965183 0.102902 -4.01861e-010 -2.92474e-010 -5.09363e-009 10.2786 0.731801 0.0259123 -4.01869e-010 -2.92473e-010 -5.09363e-009 2.22167 -0.733487 -0.20892 6.37596e-014 1.56181e-012 -2.02496e-014 -48.5889 -68.7865 43.2345 5.60057 -1.86897 -9.77269 136.566 76.1626 -145.356 -6.07918e-009 5.2734e-010 -1.04492e-009 -1.0374e-008 1.09619e-009 -1.30166e-009 -6.07918e-009 5.27347e-010 -1.04492e-009 -7.73091 5.47488 -0.417314 -6.07918e-009 5.27348e-010 -1.04492e-009 -2.90554 0.965183 -0.102902 -6.07919e-009 5.27347e-010 -1.04492e-009 -10.2786 0.731801 -0.0259123 -6.07917e-009 5.27347e-010 -1.04492e-009 -2.22167 -0.733487 0.20892 -2.03217e-016 0 -3.88251e-019 11.8462 -28.1822 6.0603 -0.144343 30.4147 0.461072 -2.6489 -5.90472 -10.7577 2.03217e-016 0 3.88251e-019 3.10915 -47.0232 -0.0744789 1.24746 62.5121 -1.69257 2.55758 -6.17262 7.73708 
